<svg width="50" height="50" viewBox="0 0 50 50" fill="none" xmlns="http://www.w3.org/2000/svg">
<path d="M0.736816 49.2165V0.379639H49.5737V49.2165H0.736816Z" fill="#FF0000"/>
<path d="M32.668 36.9354C33.6068 38.4602 34.6269 39.9213 36.788 39.9213C38.6031 39.9213 39.5554 39.0191 39.5554 37.7711C39.5554 36.2775 38.5705 35.7471 36.5736 34.8775L35.4789 34.4108C32.3194 33.0705 30.218 31.3911 30.218 27.8436C30.218 24.5743 32.7209 22.0863 36.6319 22.0863C39.417 22.0863 41.418 23.0508 42.8614 25.5768L39.4509 27.7568C38.7007 26.4165 37.8895 25.8888 36.6319 25.8888C35.3486 25.8888 34.536 26.6987 34.536 27.7568C34.536 29.0646 35.35 29.5936 37.2288 30.4035L38.3236 30.8702C42.0474 32.456 44.1474 34.0758 44.1474 37.7168C44.1474 41.64 41.049 43.7902 36.8897 43.7902C32.8213 43.7902 30.5111 41.7486 29.225 39.2213L32.668 36.9354ZM16.9507 37.0467C17.6371 38.2757 18.6803 39.2213 20.1807 39.2213C21.616 39.2213 22.4421 38.6542 22.4421 36.4498V22.085H26.9636V37.1443C26.9636 41.712 24.3142 43.7902 20.4453 43.7902C16.9493 43.7902 14.4261 41.4216 13.3978 39.2213L16.9507 37.0467Z" fill="white"/>
</svg>
