<svg width="50" height="46" viewBox="0 0 50 46" fill="none" xmlns="http://www.w3.org/2000/svg">
<path d="M19.4773 0C8.44149 1.85685 0 11.4497 0 23C0 34.5503 8.44149 44.1431 19.4773 46C10.0733 42.5865 3.3371 33.5652 3.3371 23C3.3371 12.4348 10.0733 3.41349 19.4773 0ZM27.8092 0.762251C17.4464 0.762251 8.76461 7.85498 6.29182 17.4406H49.3287C46.8548 7.85498 38.172 0.762251 27.8092 0.762251ZM5.83775 19.6643C5.72763 20.3948 5.65614 21.1365 5.61832 21.8881H50C49.9622 21.1365 49.8918 20.3948 49.7806 19.6643H5.83775ZM5.61832 24.1119C5.65614 24.8635 5.72763 25.6052 5.83775 26.3357H49.7806C49.8907 25.6052 49.9622 24.8635 50 24.1119H5.61832ZM6.29182 28.5594C8.76461 38.145 17.4464 45.2378 27.8092 45.2378C38.172 45.2378 46.8537 38.145 49.3265 28.5594H6.29182Z" fill="#FF0000"/>
</svg>
