<svg width="46" height="50" viewBox="0 0 46 50" fill="none" xmlns="http://www.w3.org/2000/svg">
<path d="M45.706 0.352412C45.496 0.127378 45.1942 0 44.8792 0H1.12084C0.805843 0 0.503971 0.127378 0.293973 0.352412C0.0795989 0.577446 -0.0254 0.878906 0.00522494 1.18461L3.94706 44.0387C3.98644 44.4888 4.31018 44.8624 4.75643 44.9898L22.6894 49.9575C22.7856 49.9873 22.8906 50 22.9956 50C23.1006 50 23.2012 49.9873 23.3019 49.9575L41.2479 44.9898C41.6942 44.8624 42.0136 44.4888 42.0573 44.0387L45.9948 1.18461C46.0254 0.878906 45.9204 0.577446 45.706 0.352412ZM36.2692 15.1282H15.1995L15.7026 20.6607H35.7617L34.2568 37.0117L22.9913 40.315L22.8819 40.2811L11.7476 37.0075L11.1395 30.3456H16.5951L16.8313 32.9314L23.0569 34.1967L29.1687 32.9314L29.8206 25.9341H10.7326L9.24951 9.84205H36.7549L36.2692 15.1282Z" fill="#FF0000"/>
</svg>
