<svg width="188" height="205" viewBox="0 0 188 205" fill="none" xmlns="http://www.w3.org/2000/svg">
<path d="M171.345 39.1558L110.624 4.40154C100.371 -1.46738 87.6298 -1.46698 77.3757 4.40154L16.6558 39.1558C6.38192 45.0356 0 56.0011 0 67.7726V137.227C0 148.999 6.38191 159.964 16.6553 165.844L77.3757 200.598C87.6314 206.468 100.372 206.466 110.624 200.598L171.344 165.844C181.618 159.964 188 148.999 188 137.227V67.7726C188 56.0015 181.618 45.036 171.345 39.1558ZM171.863 137.227C171.863 143.291 168.575 148.939 163.283 151.968L102.563 186.722C97.2807 189.746 90.7189 189.746 85.4367 186.722L24.7164 151.968C19.4245 148.939 16.1373 143.291 16.1373 137.227V67.7726C16.1373 61.7095 19.4245 56.0611 24.7168 53.0326L85.4367 18.2783C90.7193 15.2545 97.2831 15.2557 102.563 18.2783L163.284 53.0322C168.575 56.0611 171.863 61.7091 171.863 67.7726V137.227Z" fill="#FF0000"/>
<path opacity="0.42" d="M86.3323 96.3857L56.3649 71.2159C52.9636 68.3587 47.8718 68.7795 44.9933 72.1564C42.1148 75.5333 42.5392 80.5866 45.941 83.4438L68.6293 102.5L45.941 121.556C42.5392 124.413 42.1152 129.466 44.9933 132.843C47.8787 136.227 52.9716 136.634 56.3649 133.783L86.3323 108.614C90.1448 105.412 90.1339 99.5788 86.3323 96.3857Z" fill="#FF0000"/>
<path opacity="0.42" d="M136.847 119.66H100.54C96.0837 119.66 92.4714 123.246 92.4714 127.669C92.4714 132.093 96.0837 135.678 100.54 135.678H136.847C141.303 135.678 144.916 132.093 144.916 127.669C144.916 123.246 141.303 119.66 136.847 119.66Z" fill="#FF0000"/>
</svg>
