<svg width="43" height="46" viewBox="0 0 43 46" fill="none" xmlns="http://www.w3.org/2000/svg">
<path d="M21.4895 0C20.8355 0 20.1817 0.158402 19.6173 0.476863L1.86165 10.5981C0.714987 11.2527 0 12.4922 0 13.8014V32.1641C0 33.491 0.714987 34.7127 1.86165 35.3673L6.52279 38.0212C8.78029 39.1181 9.58528 39.1166 10.6065 39.1166C13.9569 39.1166 15.873 37.1176 15.873 33.6499V14.7033C15.873 14.4202 15.6418 14.1884 15.3551 14.1884H13.1156C12.811 14.1884 12.5942 14.4202 12.5942 14.7033V33.6327C12.5942 35.1896 10.9657 36.7107 8.33195 35.4192L3.45736 32.6409C3.27819 32.5525 3.17041 32.3587 3.17041 32.1641V13.8187C3.17041 13.6064 3.27819 13.4272 3.45736 13.3211L21.2131 3.20328C21.3743 3.09712 21.5903 3.09712 21.7694 3.20328L39.5251 13.3211C39.7043 13.4272 39.8121 13.6068 39.8121 13.8014V32.1641C39.8121 32.3587 39.7039 32.5525 39.5426 32.6409L21.7694 42.7794C21.6082 42.8679 21.3743 42.8679 21.2131 42.7794L16.6429 40.1083C16.5175 40.0199 16.3414 40.003 16.216 40.0738C14.9439 40.7815 14.711 40.8694 13.5285 41.2763C13.2418 41.3648 12.7936 41.5411 13.6895 42.0365L19.6173 45.5059C20.1907 45.8243 20.8375 46 21.4825 46C22.1454 46 22.7883 45.8243 23.3617 45.5059L41.1383 35.3673C42.285 34.7127 43 33.491 43 32.1641V13.8187C43 12.4917 42.285 11.27 41.1383 10.6154L23.3617 0.476863C22.7973 0.158402 22.1435 0 21.4895 0ZM26.2661 14.1642C21.1957 14.1642 18.1686 16.2859 18.1686 19.8244C18.1686 23.6636 21.1758 24.7235 26.0492 25.2012C31.8721 25.7673 32.32 26.619 32.32 27.7514C32.32 29.6975 30.7281 30.5296 26.9835 30.5296C22.2714 30.5296 21.2315 29.3602 20.8911 27.0602C20.8553 26.8126 20.6415 26.6352 20.3907 26.6352H18.0776C17.791 26.6352 17.5772 26.8674 17.5772 27.1328C17.5772 30.0874 19.2076 33.605 26.9835 33.605C32.6093 33.605 35.8333 31.4139 35.8333 27.5924C35.8333 23.8062 33.235 22.7958 27.7883 22.0705C22.2521 21.3628 21.696 20.9911 21.696 19.7172C21.696 18.6557 22.1811 17.2604 26.2661 17.2604C29.9032 17.2604 31.2642 18.0363 31.8196 20.4602C31.8733 20.6902 32.0692 20.8679 32.32 20.8679H34.6331C34.7764 20.8679 34.9 20.7979 35.0075 20.6917C35.0971 20.6032 35.1514 20.4605 35.1335 20.3012C34.7751 16.1258 31.9636 14.1642 26.2661 14.1642Z" fill="#FF0000"/>
</svg>
