<svg width="47" height="46" viewBox="0 0 47 46" fill="none" xmlns="http://www.w3.org/2000/svg">
<path d="M22.9891 0C14.1008 0 12.2609 4.49219 12.2609 7.09375V12H22.4783V13H7.24796C3.87542 13 0 15.6016 0 23C0 30.3984 3.87542 33 7.24796 33H13.2826V27C13.2826 24.8008 15.1225 23 17.3696 23H29.6304C31.3666 23 32.6957 21.6992 32.6957 20V7.09375C32.6957 3.59375 29.3231 0 22.9891 0ZM18.3913 5C19.5168 5 20.4348 5.89844 20.4348 7C20.4348 8.10156 19.5168 9 18.3913 9C17.2658 9 16.3478 8.10156 16.3478 7C16.3478 5.89844 17.2658 5 18.3913 5ZM33.7174 13V20C33.7174 22.1992 31.8775 24 29.6304 24H17.3696C15.6334 24 14.3043 25.3008 14.3043 27V38.9062C14.3043 42.4062 17.6769 46 24.0109 46C32.8992 46 34.7391 41.5078 34.7391 38.9062V34H24.5217V33H39.752C43.1246 33 47 30.3984 47 23C47 15.6016 43.1246 13 39.752 13H33.7174ZM28.6087 37C29.7342 37 30.6522 37.8984 30.6522 39C30.6522 40.1016 29.7342 41 28.6087 41C27.4832 41 26.5652 40.1016 26.5652 39C26.5652 37.8984 27.4832 37 28.6087 37Z" fill="black"/>
</svg>
