<svg width="49" height="45" viewBox="0 0 49 45" fill="none" xmlns="http://www.w3.org/2000/svg">
<path d="M28.6148 22.5718C28.6148 24.7581 26.8459 26.527 24.6595 26.527C22.4732 26.527 20.7042 24.7581 20.7042 22.5718C20.7042 20.3854 22.4732 18.6165 24.6595 18.6165C26.8459 18.6165 28.6148 20.3854 28.6148 22.5718Z" fill="black"/>
<path d="M24.6594 26.8311C22.3112 26.8311 20.3999 24.9204 20.3999 22.5716C20.3999 20.2227 22.3112 18.312 24.6594 18.312C27.0077 18.312 28.919 20.2227 28.919 22.5716C28.919 24.9204 27.0077 26.8311 24.6594 26.8311ZM24.6594 18.9205C22.6459 18.9205 21.0084 20.558 21.0084 22.5716C21.0084 24.5851 22.6459 26.2226 24.6594 26.2226C26.673 26.2226 28.3105 24.5851 28.3105 22.5716C28.3105 20.558 26.673 18.9205 24.6594 18.9205Z" fill="black"/>
<path d="M15.2121 44.1753C14.171 44.1753 13.2229 43.9368 12.3935 43.467C11.0061 42.6802 10.0471 41.3244 9.54206 39.4387C8.95485 37.2438 9.02483 34.3284 9.74408 30.9938C3.94379 28.9985 0.623779 25.9371 0.623779 22.5715C0.623779 19.2052 3.94319 16.1444 9.74348 14.1497C9.02422 10.8145 8.95363 7.89916 9.54084 5.70427C10.0459 3.8179 11.0049 2.46214 12.3917 1.67595C13.2205 1.20619 14.1691 0.967651 15.2103 0.967651C17.8804 0.967651 21.229 2.62888 24.661 5.65194C28.093 2.63192 31.4404 0.971911 34.1075 0.971911C35.1487 0.971911 36.0967 1.21045 36.9261 1.68021C38.3117 2.4658 39.2713 3.81912 39.7763 5.70305C40.3642 7.89733 40.2936 10.8133 39.5737 14.1491C45.3752 16.1438 48.6958 19.2052 48.6958 22.5715C48.6958 25.9377 45.3752 28.9991 39.5737 30.9944C40.293 34.3297 40.3636 37.245 39.7757 39.4393C39.2707 41.3238 38.3123 42.6772 36.9279 43.4627C36.0979 43.9325 35.1493 44.171 34.1087 44.171C31.4398 44.171 28.0912 42.511 24.6604 39.4922C21.2284 42.5147 17.8804 44.1753 15.2121 44.1753ZM12.0862 31.7027C11.4832 34.5731 11.4157 37.0253 11.8939 38.8095C12.2238 40.0423 12.7951 40.8973 13.5941 41.35C14.0523 41.6098 14.5969 41.7419 15.2121 41.7419C17.2774 41.7419 19.9962 40.3533 22.8921 37.8249C21.4408 36.3633 20.0242 34.7088 18.6764 32.9015C16.3452 32.6484 14.1302 32.2455 12.0862 31.7027ZM26.4281 37.8237C29.3234 40.3496 32.0428 41.737 34.1081 41.7376C34.7233 41.7376 35.2679 41.6056 35.7273 41.3457C36.5239 40.8942 37.094 40.0411 37.4232 38.8101C37.9015 37.0247 37.8346 34.5731 37.2316 31.7033C35.1858 32.2461 32.9702 32.649 30.6396 32.9021C29.2924 34.7094 27.8776 36.3633 26.4281 37.8237ZM21.9617 33.1552C22.8452 34.2359 23.7495 35.2442 24.6598 36.1613C25.5677 35.2449 26.4726 34.2366 27.3555 33.1552C26.4482 33.1984 25.5446 33.2203 24.6598 33.2203C23.7744 33.2203 22.8702 33.1984 21.9617 33.1552ZM20.0041 30.591C21.5223 30.7206 23.088 30.7863 24.6598 30.7863C26.2328 30.7863 27.7967 30.7206 29.3125 30.5916C30.2167 29.3235 31.079 27.9945 31.8767 26.6393C32.6483 25.328 33.3742 23.9595 34.0351 22.5709C33.3761 21.1859 32.6507 19.818 31.8773 18.5036C31.0814 17.1515 30.2191 15.8225 29.3125 14.5514C27.7979 14.4224 26.234 14.3566 24.6598 14.3566C23.085 14.3566 21.5205 14.4223 20.0066 14.552C19.0999 15.8213 18.2364 17.1503 17.4393 18.5042C16.6665 19.818 15.9411 21.1859 15.2815 22.5727C15.9399 23.9564 16.6652 25.3244 17.4387 26.64C18.2322 27.9878 19.0944 29.3162 20.0041 30.591ZM35.3032 25.4795C34.8736 26.2986 34.4282 27.1018 33.9736 27.8734C33.5154 28.6535 33.028 29.436 32.5217 30.2076C33.9663 29.9849 35.3482 29.6995 36.6419 29.3557C36.2829 28.1089 35.8332 26.8085 35.3032 25.4795ZM12.6747 29.3551C13.969 29.6983 15.3503 29.9843 16.793 30.207C16.2837 29.4306 15.7963 28.6474 15.3411 27.8734C14.8878 27.1024 14.4418 26.3004 14.0128 25.4814C13.4852 26.8043 13.0361 28.1034 12.6747 29.3551ZM36.718 22.5715C37.6478 24.6349 38.4054 26.6746 38.9743 28.6426C43.4785 27.058 46.2618 24.7463 46.2618 22.5715C46.2618 20.3967 43.4785 18.085 38.9743 16.5004C38.4066 18.4683 37.6484 20.508 36.718 22.5715ZM10.3429 16.5016C5.84051 18.0856 3.05781 20.3973 3.05781 22.5715C3.05781 24.7463 5.84051 27.058 10.3441 28.6419C10.9124 26.6734 11.67 24.6337 12.5986 22.5727C11.6694 20.5111 10.9118 18.4714 10.3429 16.5016ZM12.674 15.7878C13.0355 17.0377 13.4846 18.3375 14.0128 19.6628C14.4412 18.8462 14.8866 18.0436 15.3417 17.2702C15.7993 16.4919 16.2868 15.7093 16.7949 14.9359C15.3503 15.158 13.9689 15.444 12.674 15.7878ZM32.5229 14.9353C33.0323 15.7124 33.5197 16.4949 33.9748 17.2702C34.4288 18.0411 34.8748 18.8438 35.3044 19.6628C35.8332 18.3381 36.2823 17.0383 36.6438 15.7872C35.3476 15.4434 33.9663 15.1574 32.5229 14.9353ZM15.2103 3.40168C14.5951 3.40168 14.0511 3.53312 13.5935 3.79356C12.7951 4.24629 12.2231 5.10124 11.8927 6.33407C11.415 8.12004 11.482 10.5717 12.0856 13.4408C14.1302 12.898 16.3464 12.4946 18.6782 12.2415C20.0272 10.4336 21.4439 8.78027 22.8933 7.31986C19.9968 4.79029 17.2762 3.40168 15.2103 3.40168ZM30.6402 12.2409C32.9708 12.494 35.1864 12.8968 37.2322 13.4396C37.8358 10.5699 37.9034 8.11761 37.4245 6.33225C37.0947 5.10185 36.5239 4.24872 35.7267 3.79721C35.2679 3.53738 34.7233 3.40533 34.1075 3.40533C32.0428 3.40533 29.3246 4.79333 26.4287 7.31986C27.877 8.77966 29.2924 10.4336 30.6402 12.2409ZM24.6598 11.9226C25.5446 11.9226 26.4482 11.9445 27.3561 11.9877C26.4738 10.9082 25.5695 9.90054 24.661 8.98291C23.7501 9.90175 22.8465 10.9094 21.9641 11.9877C22.8714 11.9445 23.775 11.9226 24.6598 11.9226Z" fill="black"/>
<path d="M15.2101 1.27234C17.9447 1.27234 21.2927 3.04309 24.6614 6.05946C28.0295 3.04553 31.3757 1.2766 34.1079 1.2766C35.0955 1.2766 35.9937 1.50174 36.7768 1.94535C38.0888 2.68894 38.9991 3.97958 39.4822 5.78259C40.1376 8.16611 40.0001 11.1009 39.2181 14.3504C44.8298 16.2252 48.3914 19.1831 48.3914 22.5719C48.3914 25.9607 44.8298 28.9186 39.2175 30.7941C40.0335 34.307 40.1705 37.3209 39.4816 39.3612C38.9985 41.1636 38.0888 42.4549 36.778 43.1985C35.9937 43.6427 35.2811 43.8697 34.2941 43.8697C34.2935 43.8697 34.041 43.8697 34.0404 43.8697C31.3069 43.8697 28.0271 42.0989 24.6596 39.0862C21.2915 42.1019 17.9447 43.8715 15.2113 43.8715C14.2237 43.8715 13.3256 43.6463 12.5424 43.2027C11.2293 42.4573 10.3183 41.1648 9.83578 39.3606C9.11165 37.0988 9.2577 34.1256 10.0999 30.7935C4.48883 28.918 0.927843 25.9607 0.927843 22.5719C0.927843 19.1837 4.48883 16.2258 10.0993 14.3504C9.68122 12.4889 9.41408 10.7608 9.40495 9.18475C9.39765 7.93975 9.56743 6.78176 9.83517 5.7832C10.3183 3.97837 11.2287 2.6859 12.5418 1.94109C13.3243 1.49688 14.2225 1.27234 15.2101 1.27234ZM11.8554 13.8179C13.9712 13.2368 16.3206 12.7975 18.8429 12.5297C20.2924 10.5764 21.8094 8.82026 23.3373 7.30629C20.3727 4.66172 17.4859 3.09725 15.2101 3.09725C14.5414 3.09725 13.9475 3.24207 13.443 3.52868C12.571 4.0234 11.9509 4.94042 11.5986 6.2554C11.0765 8.20384 11.1952 10.8375 11.8554 13.8179ZM37.462 13.8173C38.1222 10.8369 38.2409 8.20262 37.7188 6.25418C37.3671 4.94163 36.747 4.02644 35.8768 3.53294C35.3718 3.24633 34.776 3.10151 34.1079 3.10151C31.8339 3.10151 28.949 4.66416 25.9849 7.30629C27.5123 8.82026 29.0275 10.5764 30.4757 12.5291C32.9968 12.7969 35.3462 13.2362 37.462 13.8173ZM21.2988 12.3283C22.3954 12.2632 23.4949 12.2066 24.6383 12.2066C25.7817 12.2066 26.9233 12.2638 28.0198 12.3283C26.9196 10.9415 25.7902 9.6746 24.6602 8.55312C23.5302 9.6746 22.4002 10.9415 21.2988 12.3283ZM24.6596 31.091C26.3397 31.091 27.948 31.0174 29.4778 30.8829C30.4021 29.5947 31.296 28.2268 32.1382 26.7943C32.9615 25.3954 33.7063 23.9794 34.3714 22.5719C33.7063 21.1644 32.9615 19.749 32.1388 18.3507C31.296 16.9177 30.4027 15.5503 29.4778 14.2621C27.9486 14.1264 26.3403 14.0528 24.6596 14.0528C22.9789 14.0528 21.37 14.1264 19.8402 14.2615C18.9147 15.5497 18.0202 16.9177 17.1774 18.3501C16.3547 19.749 15.6099 21.165 14.9448 22.5725C15.6099 23.98 16.3541 25.3954 17.1768 26.7937C18.0196 28.2262 18.9135 29.5941 19.8384 30.8823C21.3688 31.0174 22.9783 31.091 24.6596 31.091ZM35.3365 20.3892C36.0211 18.7407 36.5876 17.1221 37.0196 15.5741C35.4661 15.1469 33.7501 14.794 31.8911 14.5354C32.5167 15.4645 33.1258 16.4278 33.7118 17.4245C34.2923 18.4097 34.832 19.4004 35.3365 20.3892ZM13.9797 20.3898C14.4836 19.401 15.0239 18.4103 15.6032 17.4245C16.1898 16.4278 16.7995 15.4652 17.4257 14.536C15.5667 14.794 13.8507 15.1475 12.2972 15.5747C12.7292 17.1227 13.2957 18.7408 13.9797 20.3898ZM38.7697 29.0355C43.684 27.3706 46.5659 24.9244 46.5659 22.5719C46.5659 20.2194 43.684 17.7732 38.7697 16.1083C38.1898 18.1803 37.389 20.3576 36.3843 22.5713C37.389 24.7857 38.1898 26.9629 38.7697 29.0355ZM10.5483 29.0349C11.1276 26.9635 11.9278 24.7863 12.9325 22.5731C11.9278 20.3594 11.127 18.1815 10.5477 16.1096C5.63404 17.7744 2.75336 20.22 2.75336 22.5719C2.75336 24.9244 5.63464 27.37 10.5483 29.0349ZM31.8911 30.6085C33.7501 30.3505 35.4661 29.9975 37.0196 29.5697C36.587 28.0217 36.0204 26.4031 35.3365 24.754C34.832 25.7428 34.2917 26.7335 33.7118 27.7193C33.1258 28.716 32.5167 29.6793 31.8911 30.6085ZM17.4239 30.6079C16.7983 29.6787 16.1892 28.716 15.6026 27.7199C15.0233 26.7347 14.4836 25.7447 13.9797 24.7565C13.2957 26.4043 12.7298 28.0223 12.2978 29.5697C13.8507 29.9963 15.5661 30.3492 17.4239 30.6079ZM15.2119 42.046C17.4871 42.046 20.3727 40.4821 23.3367 37.8387C21.8075 36.3242 20.2911 34.5674 18.8411 32.6135C16.32 32.3464 13.9718 31.907 11.8566 31.3259C11.197 34.3064 11.0783 36.94 11.5998 38.8884C11.9516 40.2028 12.5722 41.1198 13.4436 41.6145C13.9475 41.9011 14.5432 42.046 15.2119 42.046ZM34.1079 42.0423C34.7767 42.0423 35.3712 41.8975 35.8768 41.6109C36.747 41.1174 37.3659 40.2022 37.717 38.889C38.2391 36.94 38.1204 34.3064 37.4608 31.3265C35.345 31.9076 32.9962 32.347 30.4745 32.6141C29.0263 34.5674 27.5105 36.3236 25.9831 37.8381C28.9472 40.4791 31.8327 42.0417 34.1079 42.0423ZM24.6596 36.5919C25.7896 35.4698 26.919 34.2023 28.0198 32.8155C26.9239 32.8806 25.8541 33.0182 24.7101 33.0182C23.5655 33.0182 22.3935 32.8806 21.297 32.8155C22.3984 34.2029 23.529 35.4704 24.6596 36.5919ZM14.9941 0.709468C13.8994 0.709468 13.1168 0.915143 12.2418 1.41108C10.782 2.23925 9.77432 3.65708 9.24735 5.6256C8.66318 7.80831 8.71369 10.6774 9.39096 13.9506C3.61684 15.9933 0.319336 19.1186 0.319336 22.5719C0.319336 26.0258 3.61744 29.1505 9.39157 31.1932C8.7143 34.4664 8.66379 37.3355 9.24857 39.5182C9.77493 41.4855 10.782 42.9034 12.243 43.7327C13.1193 44.2293 14.172 44.4404 15.2661 44.4404C17.9965 44.4404 21.2009 42.8979 24.6602 39.8973C28.119 42.8948 31.3775 44.4757 34.1073 44.4763C35.202 44.4763 36.2012 44.225 37.0774 43.7285C38.536 42.9015 39.5425 41.4855 40.0688 39.5194C40.6536 37.3361 40.6031 34.467 39.9258 31.1945C45.7012 29.1511 48.9999 26.0258 48.9999 22.5719C48.9999 19.118 45.7018 15.9927 39.9264 13.95C40.6043 10.6762 40.6542 7.80709 40.0694 5.62438C39.5425 3.65829 38.5354 2.2423 37.0762 1.41534C36.2006 0.919402 35.2014 0.66748 34.1073 0.66748C31.3781 0.66748 28.1202 2.24899 24.6608 5.24771C21.2009 2.24656 17.9271 0.707642 15.1961 0.707642L14.9941 0.709468ZM12.3191 13.0652C12.038 11.651 11.8493 10.3257 11.839 9.16346C11.8299 8.11682 11.9735 7.20589 12.1858 6.4124C12.4943 5.2611 13.0183 4.46882 13.743 4.05747C14.1544 3.82381 14.6558 3.6656 15.2174 3.6656C17.1531 3.6656 19.7003 4.99092 22.4483 7.33733C21.0968 8.72046 19.7757 10.2697 18.5137 11.9529C16.3322 12.1963 14.2523 12.5693 12.3191 13.0652ZM26.8734 7.33854C29.6208 4.99397 32.1741 3.71002 34.1073 3.71002C34.6696 3.71002 35.1643 3.82867 35.5762 4.06234C36.2997 4.47248 36.8231 5.26293 37.131 6.41179C37.6628 8.12656 37.594 10.406 36.9983 13.0646C35.0651 12.5693 32.9858 12.1956 30.8049 11.9535C29.5435 10.2709 28.2236 8.72168 26.8734 7.33854ZM22.6351 11.6553C23.302 10.8642 23.9793 10.1158 24.6602 9.4172C25.3411 10.1158 26.0178 10.8642 26.6841 11.6553C26.0032 11.631 25.3259 11.6188 24.6596 11.6188C23.9933 11.6188 23.3166 11.631 22.6351 11.6553ZM20.1719 14.8439C21.6353 14.7228 23.1432 14.6364 24.6596 14.6364C26.1754 14.6364 27.6833 14.7228 29.1461 14.8439C30.0175 16.0724 30.8475 17.3546 31.6142 18.6586C32.3578 19.9231 33.0582 21.2381 33.6972 22.5713C33.0576 23.9052 32.3572 25.2207 31.6136 26.4852C30.8463 27.7899 30.0169 29.0714 29.1455 30.3C27.6833 30.421 26.1754 30.5835 24.6596 30.5835C23.1426 30.5835 21.6341 30.4204 20.1701 30.2993C19.2981 29.0714 18.4681 27.7893 17.7007 26.4846C16.9571 25.2207 16.2574 23.9058 15.6184 22.5719C16.2574 21.2381 16.9577 19.9225 17.7013 18.658C18.4693 17.354 19.2999 16.0718 20.1719 14.8439ZM35.261 18.9355C34.927 18.316 34.5844 17.7075 34.2369 17.116C33.8901 16.5264 33.5268 15.9343 33.1507 15.3459C34.2302 15.5297 35.2714 15.7493 36.2626 16.0031C35.9785 16.956 35.6432 17.9369 35.261 18.9355ZM13.0542 16.0031C14.0454 15.7493 15.0866 15.5297 16.1661 15.3459C15.7894 15.9343 15.4261 16.5264 15.0793 17.1154C14.7318 17.7069 14.3892 18.3154 14.0552 18.9349C13.673 17.9375 13.3383 16.9566 13.0542 16.0031ZM37.0519 22.5713C37.9129 20.6472 38.6261 18.7426 39.1756 16.8964C43.3761 18.4292 45.9574 20.5766 45.9574 22.5719C45.9574 24.5672 43.3761 26.7146 39.1756 28.2475C38.6255 26.4006 37.9129 24.4954 37.0519 22.5713ZM10.1419 28.2468C5.94255 26.714 3.36187 24.5666 3.36187 22.5719C3.36187 20.5772 5.94255 18.4298 10.1412 16.897C10.6907 18.7438 11.4033 20.6484 12.2643 22.5725C11.4039 24.496 10.6913 26.4006 10.1419 28.2468ZM33.1501 29.7985C33.5262 29.2095 33.8901 28.6174 34.2363 28.0284C34.5844 27.4369 34.927 26.8278 35.261 26.2084C35.6432 27.2069 35.9778 28.1884 36.2626 29.142C35.2708 29.3945 34.2296 29.6148 33.1501 29.7985ZM13.0548 29.1407C13.339 28.1878 13.6736 27.2075 14.0552 26.2102C14.3886 26.829 14.7312 27.4375 15.0787 28.0284C15.4249 28.6174 15.7882 29.2089 16.1649 29.7979C15.086 29.6136 14.0454 29.3939 13.0548 29.1407ZM15.2119 41.4375C14.6497 41.4375 14.1556 41.3188 13.7436 41.0851C13.0195 40.6738 12.4956 39.8821 12.1877 38.7308C11.682 36.9996 11.7392 34.7195 12.3203 32.078C14.2529 32.5733 16.3316 32.947 18.5119 33.1891C19.7745 34.8723 21.0956 36.4221 22.4477 37.8065C19.7003 40.1535 17.1464 41.4381 15.2119 41.4375ZM30.8043 33.1904C32.9852 32.9476 35.0645 32.5746 36.9977 32.0792C37.6701 34.9636 37.723 37.2625 37.1298 38.7314C36.8225 39.8809 36.2998 40.6713 35.5768 41.0809C35.1643 41.3145 34.6702 41.4332 34.1085 41.4332V42.0417L34.1079 41.4332C32.1729 41.4332 29.6189 40.1493 26.8722 37.8059C28.223 36.4228 29.5429 34.8735 30.8043 33.1904ZM24.6596 35.7278C23.9781 35.0293 23.3002 34.2802 22.6333 33.4885C23.3148 33.5129 23.9927 33.525 24.6596 33.525C25.3259 33.525 26.0032 33.5129 26.6841 33.4885C26.0178 34.2802 25.3405 35.0293 24.6596 35.7278Z" fill="black"/>
</svg>
